<svg width="117" height="87" viewBox="0 0 117 87" fill="none" xmlns="http://www.w3.org/2000/svg">
<rect width="11.1135" height="93.0732" transform="translate(50.0889) rotate(30.5657)" fill="#E51561"/>
<g clip-path="url(#clip0_0_1)">
<rect width="11.1135" height="91.799" transform="translate(87.6884 0.106461) rotate(30.5657)" fill="#E51561"/>
</g>
<g clip-path="url(#clip1_0_1)">
<rect width="14.1104" height="84.3414" transform="translate(89.2942 2.4136) rotate(-9.41049)" fill="#E51561"/>
</g>
<g clip-path="url(#clip2_0_1)">
<rect width="13.1213" height="84.3414" transform="translate(53.2902 2.24854) rotate(-9.41049)" fill="#E51561"/>
</g>
<rect width="11.7337" height="88.8449" transform="translate(110.805 51.1065) rotate(89.9308)" fill="#E51561"/>
<g clip-path="url(#clip3_0_1)">
<rect width="13" height="2" transform="translate(0.00619507 84.1065)" fill="#E51561"/>
</g>
<rect width="13" height="2" transform="translate(38.0062 84.1065)" fill="#E51561"/>
<rect width="15" height="4" transform="translate(88.0062 0.106461)" fill="#E51561"/>
<rect width="16" height="2" transform="translate(50.0062 0.106461)" fill="#E51561"/>
<rect width="14" height="3" transform="translate(103.006 83.1065)" fill="#E51561"/>
<rect width="13" height="3" transform="matrix(1 0 0 -1 67.0062 86.1065)" fill="#E51561"/>
<rect width="18" height="2" transform="matrix(1 0 0 -1 80.0062 86.1065)" fill="#E51561"/>
<rect width="17" height="3" transform="matrix(1 0 0 -1 84.0062 72.1065)" fill="#E51561"/>
<rect width="16" height="8" transform="matrix(1 0 0 -1 82.0062 84.1065)" fill="#E51561"/>
<rect width="16" height="6" transform="matrix(1 0 0 -1 84.0062 77.1065)" fill="#E51561"/>
<rect width="15.92" height="2" transform="matrix(0.225733 -0.974189 -0.974189 -0.225733 81.9546 85.067)" fill="#E51561"/>
<rect width="15.92" height="2" transform="matrix(0.225733 -0.974189 -0.974189 -0.225733 97.9546 86.067)" fill="#E51561"/>
<rect width="6" height="3" transform="translate(4.0062 81.1065)" fill="#E51561"/>
<rect width="8" height="3" transform="translate(42.0062 81.1065)" fill="#E51561"/>
<rect width="3.55194" height="11.7828" transform="translate(6.15073 74.0155) rotate(31.4672)" fill="#E51561"/>
<rect width="3.60812" height="5.87783" transform="translate(41.0836 79.0771) rotate(31.4672)" fill="#E51561"/>
<defs>
<clipPath id="clip0_0_1">
<rect width="11.1135" height="91.799" fill="white" transform="translate(87.6884 0.106461) rotate(30.5657)"/>
</clipPath>
<clipPath id="clip1_0_1">
<rect width="14.1104" height="84.3414" fill="white" transform="translate(89.2942 2.4136) rotate(-9.41049)"/>
</clipPath>
<clipPath id="clip2_0_1">
<rect width="13.1213" height="84.3414" fill="white" transform="translate(53.2902 2.24854) rotate(-9.41049)"/>
</clipPath>
<clipPath id="clip3_0_1">
<rect width="13" height="2" fill="white" transform="translate(0.00619507 84.1065)"/>
</clipPath>
</defs>
</svg>
