<svg
   width="117"
   height="87"
   viewBox="0 0 117 87"
   fill="none"
   version="1.1"
   id="svg25"
   xmlns="http://www.w3.org/2000/svg"
   xmlns:svg="http://www.w3.org/2000/svg">
  <path
     id="rect1"
     clip-path="none"
     style="fill:#e51561"
     d="M 50.089844,0 C 35.514734,24.679315 20.904882,49.415866 6.3164063,74.117187 5.221932,75.033974 4.4075629,77.113581 3.4205789,78.476601 c -1.0490777,1.966992 -2.75383089,4.010225 -3.41470925,5.921354 -0.79895036,2.627819 2.18530775,1.472427 3.77715335,1.709449 3.0742819,10e-7 6.1485643,0 9.222846,10e-7 -0.276346,-2.403949 1.92297,-4.131382 2.807466,-6.218112 3.336314,-5.64865 6.672627,-11.297301 10.00894,-16.945951 8.257813,-0.01042 16.515626,-0.02083 24.773438,-0.03125 -4.207115,7.056599 -8.356548,14.295991 -12.589832,21.195314 -0.839072,2.667941 1.706451,1.951285 3.486603,2.000001 3.171132,-10e-7 6.342264,-10e-7 9.513397,0 -0.515929,-2.637487 1.764248,-4.510036 2.787678,-6.753457 3.195127,-5.410316 6.390255,-10.820631 9.585383,-16.230947 1.16148,7.589382 2.703033,15.147482 3.626953,22.756416 1.287732,0.531555 3.562316,0.07626 5.229904,0.227959 8.590032,0 17.180064,0 25.770096,0 0.876947,-4.390353 2.007765,-8.751678 2.982425,-13.13086 0.62369,4.380973 1.65415,8.728463 2.01757,13.13086 4.66667,0 9.33334,10e-7 14.00001,2e-6 0.12258,-4.956134 -1.37286,-9.81703 -1.98122,-14.752205 -3.9366,-23.749264 -7.8732,-47.498529 -11.8098,-71.24779349 -4.993525,7.1475e-4 -10.151996,-5.323e-4 -15.208991,-1.4e-7 -0.941795,0.42698 -1.793086,2.78955083 -2.682487,4.00278413 C 80.527461,12.230332 75.731519,20.350497 70.935578,28.470664 69.36852,19.014934 67.801463,9.559205 66.234406,0.10347571 60.939273,0.0406606 55.392671,0.24875132 50.089844,0 Z m 3.568359,2.1074219 c 0.656973,-0.1028402 0.382782,0.1597164 0,0 z m 1.46875,11.2167971 c 1.807943,10.910156 3.615886,21.820312 5.423828,32.730468 -1.006503,1.705083 -2.013005,3.410166 -3.019508,5.115249 -8.257812,0.0098 -16.515625,0.01953 -24.773437,0.0293 7.456373,-12.625004 14.912745,-25.250009 22.369117,-37.875013 z m 36.345703,2.228515 c 1.964844,11.856771 3.929687,23.713542 5.894531,35.570313 -7.557291,0.0091 -15.114583,0.01823 -22.671874,0.02734 -0.19047,-1.94138 -0.918947,-3.983249 -0.781944,-5.863464 5.853095,-9.911398 11.706192,-19.822795 17.559287,-29.734193 z m 7.837891,47.300782 c 0.345704,2.084635 0.691403,4.169271 1.037113,6.253906 -5.54805,-0.0037 -11.370986,0.0059 -16.748051,-0.002 -1.228944,4.961609 -2.213321,10.23095 -3.593748,15.001952 C 79.487719,78.741857 78.25441,73.309487 77.473426,67.91568 77.414849,66.3413 76.42004,63.974101 76.929222,62.880509 c 7.460442,-0.009 14.920884,-0.018 22.381325,-0.02699 z M 44.136719,80.998047 c 0.603595,0.109211 -0.333191,0.244319 0,0 z" />
  <defs
     id="defs25" />
</svg>
