<?xml version="1.0" encoding="UTF-8" standalone="no"?>
<!-- Created with Inkscape (http://www.inkscape.org/) -->

<svg
   width="210mm"
   height="297mm"
   viewBox="0 0 210 297"
   version="1.1"
   id="svg1"
   xml:space="preserve"
   xmlns="http://www.w3.org/2000/svg"
   xmlns:svg="http://www.w3.org/2000/svg"><defs
     id="defs1"><filter
       id="filter0_d_0_1"
       x="150.5"
       y="0.42646"
       width="402.85501"
       height="93.68"
       filterUnits="userSpaceOnUse"
       color-interpolation-filters="sRGB"><feFlood
         flood-opacity="0"
         result="BackgroundImageFix"
         id="feFlood21" /><feColorMatrix
         in="SourceAlpha"
         type="matrix"
         values="0 0 0 0 0 0 0 0 0 0 0 0 0 0 0 0 0 0 127 0"
         result="hardAlpha"
         id="feColorMatrix21" /><feOffset
         dy="4"
         id="feOffset21" /><feGaussianBlur
         stdDeviation="2"
         id="feGaussianBlur21" /><feComposite
         in2="hardAlpha"
         operator="out"
         id="feComposite21" /><feColorMatrix
         type="matrix"
         values="0 0 0 0 0 0 0 0 0 0 0 0 0 0 0 0 0 0 0.25 0"
         id="feColorMatrix22" /><feBlend
         mode="normal"
         in2="BackgroundImageFix"
         result="effect1_dropShadow_0_1"
         id="feBlend22" /><feBlend
         mode="normal"
         in="SourceGraphic"
         in2="effect1_dropShadow_0_1"
         result="shape"
         id="feBlend23" /></filter></defs><g
     id="layer1"><path
       id="rect1"
       style="fill:#e51561;stroke-width:0.264583"
       d="m 59.858878,84.618607 c -3.856746,6.530159 -7.721427,13.074493 -11.581227,19.610103 -0.289575,0.24254 -0.505049,0.79279 -0.766189,1.15342 -0.277555,0.52042 -0.728628,1.06103 -0.903454,1.56666 -0.211388,0.69528 0.578196,0.38958 0.999372,0.45229 0.813404,1e-5 1.626808,0 2.440212,1e-5 -0.07277,-0.63561 0.509064,-1.09234 0.742793,-1.64419 l 2.648731,-4.48464 c 2.184709,-0.003 4.369417,-0.006 6.554122,-0.008 -1.113982,1.8676 -2.209002,3.78037 -3.330881,5.608 -0.221993,0.7059 0.451505,0.51628 0.922508,0.52917 h 2.517078 c -0.13618,-0.69781 0.467488,-1.19323 0.737967,-1.78664 0.845382,-1.43148 1.690764,-2.86296 2.536137,-4.29444 0.307309,2.00803 0.71518,4.00778 0.959634,6.02097 0.340714,0.14064 0.942537,0.0202 1.383746,0.0603 2.272779,0 4.54556,0 6.818331,-10e-6 0.232229,-1.16141 0.531183,-2.3152 0.789089,-3.47369 0.165042,1.15896 0.437506,2.30908 0.533823,3.4737 h 3.704166 c 0.03201,-1.31121 -0.363629,-2.59747 -0.524591,-3.90339 -1.041554,-6.283655 -2.083117,-12.567317 -3.12468,-18.850979 -1.321492,-1.27e-4 -2.686179,-1.86e-4 -4.0243,-1.39e-4 -0.249295,0.112864 -0.474445,0.738053 -0.709799,1.059041 -1.268929,2.148459 -2.53785,4.296923 -3.806779,6.445382 -0.414618,-2.501829 -0.829234,-5.003657 -1.243853,-7.505486 -1.401094,-0.01657 -2.868592,0.03808 -4.271956,-0.02719 z m 0.943612,0.557589 c 0.176595,-0.02693 0.10654,0.04236 0,0 z m 0.389641,2.968294 c 0.478352,2.886646 0.956703,5.773292 1.435057,8.659939 -0.266482,0.451133 -0.532955,0.902271 -0.799436,1.353405 l -6.554123,0.0078 5.918502,-10.021095 z m 9.616464,0.589628 1.559597,9.410796 -5.998595,0.0072 c -0.05039,-0.513657 -0.243148,-1.053906 -0.206894,-1.551377 1.548634,-2.622217 3.097259,-5.244439 4.645892,-7.866656 z m 2.073779,12.514482 c 0.09147,0.55156 0.182934,1.10312 0.274401,1.65468 -1.467762,-6.5e-4 -3.009585,8.7e-4 -4.431274,-10e-6 -0.32497,1.31282 -0.585854,2.70628 -0.950848,3.96875 -0.136682,-1.41963 -0.46306,-2.85697 -0.669498,-4.28407 -0.01544,-0.41652 -0.278621,-1.04284 -0.143845,-1.33215 1.973682,-0.002 3.947373,-0.005 5.921064,-0.007 z m -14.598077,4.80126 c 0.159549,0.0282 -0.08785,0.0639 0,0 z" /><path
       id="path21"
       style="filter:url(#filter0_d_0_1)"
       d="M 169.6134,0.42723391 154.50012,86.106922 h 21.53906 l 5.31836,-30.525391 h 0.002 c 11.13866,-0.320053 24.16199,-0.722485 31.80664,-0.890625 l 3.21289,-18.564453 h -31.65234 l 2.97461,-17.136719 h 38.31836 l 3.33203,-18.56250009 z m 72.77539,0 -15.11328,85.67968809 h 22.84766 l 4.8789,-32.011719 h 7.37891 l 9.99609,32.011719 h 24.03711 L 285.58606,51.358875 c 2.856,-1.3487 5.43337,-3.609903 7.73437,-6.783203 2.38,-3.1734 4.04605,-7.339494 4.99805,-12.496094 l 1.66601,-9.28125 c 0.317,-1.7454 0.47657,-3.411447 0.47657,-4.998047 0,-4.6014 -1.42721,-8.4091683 -4.28321,-11.4238283 -3.808,-3.96667 -10.23529,-5.94921879 -19.27929,-5.94921879 z m 89.39844,0 L 301.2052,86.106922 h 22.72851 l 5.83203,-18.683593 h 19.87305 l -0.71484,18.683593 h 22.60937 L 371.05871,0.42723391 Z m 53.31445,0 -3.33203,18.56250009 h 29.39258 l -11.78125,67.117188 h 21.53906 l 11.78125,-67.117188 h 29.27344 l 3.33203,-18.56250009 z m 84.04688,0 -3.33203,18.56250009 h 29.39258 l -11.7793,67.117188 h 21.53906 l 11.7793,-67.117188 h 29.27539 L 549.35559,0.42723391 Z M 260.47668,18.989734 h 8.92578 c 5.395,0 8.0918,3.214625 8.0918,9.640625 0,3.332 -0.91133,6.029097 -2.73633,8.091797 -1.825,1.9833 -4.83992,2.97461 -9.04492,2.97461 h -8.33008 z m 83.56836,2.261719 h 7.4961 l -1.3086,30.226563 h -15.58789 z"
       transform="matrix(0.26458333,0,0,0.26458333,46.606427,84.61874)" /><path
       style="fill:#ffffff;fill-opacity:1;stroke-width:0.669259"
       d="m 480.55515,398.04184 c 1.47539,-4.14104 8.29779,-23.26511 15.16088,-42.49795 l 12.47836,-34.96879 h 19.18593 19.18592 l 0.44307,31.6225 c 0.24369,17.39237 0.44343,36.51645 0.44386,42.49795 l 7.7e-4,10.87546 h -11.08983 -11.08983 l 0.47562,-9.36963 0.47561,-9.36963 h -10.39489 -10.3949 l -0.45133,1.84047 c -0.24823,1.01225 -1.51349,5.22858 -2.81168,9.36962 l -2.36034,7.52917 h -10.96988 -10.96987 z m 46.42335,-34.80147 c 0.23073,-4.50913 0.59908,-11.45121 0.81857,-15.42685 l 0.39907,-7.22843 -4.16657,0.20121 -4.16657,0.20121 -4.60323,14.7237 c -2.53178,8.09803 -4.6059,14.94957 -4.60916,15.22564 -0.003,0.27607 3.5748,0.50195 7.95123,0.50195 h 7.95715 z"
       id="path1"
       transform="scale(0.26458333)" /><path
       style="fill:#ffffff;fill-opacity:1;stroke-width:0.669259"
       d="m 411.03706,364.57889 c 3.97116,-22.54567 7.38327,-41.66974 7.58246,-42.49795 l 0.36217,-1.50584 h 19.43097 c 21.88867,0 26.60386,0.61296 31.39094,4.0807 3.40718,2.46815 5.1265,5.24066 6.07087,9.78966 0.62464,3.00893 0.48487,4.88098 -0.94582,12.66718 -2.07205,11.27669 -4.27092,16.12184 -9.47509,20.87816 -2.01563,1.84218 -3.66479,3.59569 -3.66479,3.8967 0,0.30101 2.25875,7.82776 5.01945,16.72611 2.76069,8.89836 5.01944,16.35401 5.01944,16.56811 0,0.21411 -5.19536,0.38929 -11.54525,0.38929 h -11.54525 l -4.97664,-16.06222 -4.97664,-16.06222 h -3.84541 c -3.08988,0 -3.91053,0.23012 -4.17682,1.17121 -0.18227,0.64416 -1.31792,7.87216 -2.52367,16.06221 l -2.19228,14.89102 h -11.11447 -11.11446 z m 38.03805,-6.24416 c 3.5302,-2.07254 4.79877,-5.11754 4.53754,-10.89161 -0.20716,-4.57922 -0.37364,-5.05669 -2.39179,-6.85991 -2.06697,-1.84683 -2.46557,-1.93811 -8.46335,-1.93811 h -6.29423 l -0.36178,1.84046 c -0.19898,1.01226 -0.83751,5.1533 -1.41896,9.20232 -0.58145,4.04901 -1.21132,8.07965 -1.39971,8.95697 l -0.34252,1.59512 6.97302,-0.31012 c 5.25625,-0.23377 7.51189,-0.62649 9.16178,-1.59512 z"
       id="path2"
       transform="scale(0.26458333)" /><path
       style="fill:#ffffff;fill-opacity:1;stroke-width:0.669259"
       d="m 576.23346,404.73444 c 7.7e-4,-0.46012 2.56068,-15.43268 5.68871,-33.27235 3.12802,-17.83968 5.68731,-32.52155 5.68731,-32.62639 0,-0.10483 -6.64596,-0.1906 -14.7688,-0.1906 -13.74842,0 -14.74539,-0.0809 -14.42998,-1.1712 0.18635,-0.64417 0.81729,-3.88171 1.40209,-7.19454 0.5848,-3.31283 1.22947,-6.85154 1.4326,-7.86379 l 0.36934,-1.84047 h 39.78049 39.78049 l -0.32103,1.50584 c -0.17657,0.82821 -0.63406,3.23754 -1.01665,5.35407 -0.38258,2.11653 -1.01811,5.50466 -1.41231,7.52917 l -0.71671,3.68092 h -14.67625 c -8.07193,0 -14.67687,0.22587 -14.67763,0.50194 -7.7e-4,0.27607 -2.56068,15.09805 -5.68871,32.93773 -3.12802,17.83967 -5.68731,32.67213 -5.68731,32.961 0,0.28888 -4.66808,0.52524 -10.37352,0.52524 -7.85338,0 -10.37318,-0.20323 -10.37213,-0.83657 z"
       id="path3"
       transform="scale(0.26458333)" /><path
       style="fill:#ffffff;fill-opacity:1;stroke-width:0.669259"
       d="m 660.27964,403.74747 c 0.19992,-1.02156 2.84292,-16.01222 5.87334,-33.31256 l 5.50985,-31.45518 -14.58705,-0.18012 c -11.02586,-0.13614 -14.57942,-0.38123 -14.5558,-1.00389 0.0172,-0.45307 0.69858,-4.43777 1.51419,-8.85488 l 1.48294,-8.03111 39.64524,-0.17262 c 29.33194,-0.12771 39.64525,0.0259 39.64525,0.59037 0,0.41965 -0.65659,4.48779 -1.45908,9.04031 l -1.45906,8.27731 h -14.60315 c -8.03173,0 -14.6203,0.0753 -14.64126,0.16731 -0.0209,0.092 -2.66909,15.07507 -5.88475,33.29564 l -5.84666,33.12833 -10.49874,0.18424 -10.49874,0.18424 z"
       id="path4"
       transform="scale(0.26458333)" /><path
       style="fill:#ffffff;fill-opacity:1;stroke-width:0.669259"
       d="m 331.28325,404.9293 c 0,-0.61105 13.67511,-78.66534 14.4564,-82.51373 l 0.37365,-1.84047 h 29.47788 29.47788 l -0.35022,1.84047 c -0.19262,1.01225 -0.89361,5.078 -1.55775,9.03499 l -1.20751,7.19454 h -19.27295 c -10.60012,0 -19.27294,0.25014 -19.27294,0.55588 0,0.30573 -0.59776,3.84444 -1.32836,7.86379 -0.73059,4.01936 -1.33293,7.68438 -1.33852,8.14449 -0.008,0.64586 3.58218,0.83658 15.74775,0.83658 h 15.75792 l -0.40129,2.17509 c -0.22072,1.1963 -0.92835,5.18676 -1.57253,8.86768 l -1.17123,6.69259 -4.98308,0.41447 c -2.74069,0.22796 -9.87129,0.45384 -15.84578,0.50195 -10.68304,0.086 -10.86845,0.11238 -11.20982,1.5933 -0.42828,1.85794 -5.03247,28.25148 -5.03247,28.84863 0,0.23731 -4.66808,0.43146 -10.37351,0.43146 -6.17263,0 -10.37352,-0.25987 -10.37352,-0.64171 z"
       id="path5"
       transform="scale(0.26458333)" /></g></svg>
