<?xml version="1.0" encoding="UTF-8" standalone="no"?>
<!-- Created with Inkscape (http://www.inkscape.org/) -->

<svg
   width="146.44221mm"
   height="24.899136mm"
   viewBox="0 0 146.44221 24.899136"
   version="1.1"
   id="svg1"
   xml:space="preserve"
   xmlns="http://www.w3.org/2000/svg"
   xmlns:svg="http://www.w3.org/2000/svg"><defs
     id="defs1"><filter
       id="filter0_d_0_1"
       x="150.5"
       y="0.42646"
       width="402.85501"
       height="93.68"
       filterUnits="userSpaceOnUse"
       color-interpolation-filters="sRGB"><feFlood
         flood-opacity="0"
         result="BackgroundImageFix"
         id="feFlood21" /><feColorMatrix
         in="SourceAlpha"
         type="matrix"
         values="0 0 0 0 0 0 0 0 0 0 0 0 0 0 0 0 0 0 127 0"
         result="hardAlpha"
         id="feColorMatrix21" /><feOffset
         dy="4"
         id="feOffset21" /><feGaussianBlur
         stdDeviation="2"
         id="feGaussianBlur21" /><feComposite
         in2="hardAlpha"
         operator="out"
         id="feComposite21" /><feColorMatrix
         type="matrix"
         values="0 0 0 0 0 0 0 0 0 0 0 0 0 0 0 0 0 0 0.25 0"
         id="feColorMatrix22" /><feBlend
         mode="normal"
         in2="BackgroundImageFix"
         result="effect1_dropShadow_0_1"
         id="feBlend22" /><feBlend
         mode="normal"
         in="SourceGraphic"
         in2="effect1_dropShadow_0_1"
         result="shape"
         id="feBlend23" /></filter></defs><g
     id="layer1"
     transform="translate(-46.572707,-84.618607)"><path
       id="rect1"
       style="fill:#e51561;stroke-width:0.264583"
       d="m 59.858878,84.618607 c -3.856746,6.530159 -7.721427,13.074493 -11.581227,19.610103 -0.289575,0.24254 -0.505049,0.79279 -0.766189,1.15342 -0.277555,0.52042 -0.728628,1.06103 -0.903454,1.56666 -0.211388,0.69528 0.578196,0.38958 0.999372,0.45229 0.813404,1e-5 1.626808,0 2.440212,1e-5 -0.07277,-0.63561 0.509064,-1.09234 0.742793,-1.64419 l 2.648731,-4.48464 c 2.184709,-0.003 4.369417,-0.006 6.554122,-0.008 -1.113982,1.8676 -2.209002,3.78037 -3.330881,5.608 -0.221993,0.7059 0.451505,0.51628 0.922508,0.52917 h 2.517078 c -0.13618,-0.69781 0.467488,-1.19323 0.737967,-1.78664 0.845382,-1.43148 1.690764,-2.86296 2.536137,-4.29444 0.307309,2.00803 0.71518,4.00778 0.959634,6.02097 0.340714,0.14064 0.942537,0.0202 1.383746,0.0603 2.272779,0 4.54556,0 6.818331,-10e-6 0.232229,-1.16141 0.531183,-2.3152 0.789089,-3.47369 0.165042,1.15896 0.437506,2.30908 0.533823,3.4737 h 3.704166 c 0.03201,-1.31121 -0.363629,-2.59747 -0.524591,-3.90339 -1.041554,-6.283655 -2.083117,-12.567317 -3.12468,-18.850979 -1.321492,-1.27e-4 -2.686179,-1.86e-4 -4.0243,-1.39e-4 -0.249295,0.112864 -0.474445,0.738053 -0.709799,1.059041 -1.268929,2.148459 -2.53785,4.296923 -3.806779,6.445382 -0.414618,-2.501829 -0.829234,-5.003657 -1.243853,-7.505486 -1.401094,-0.01657 -2.868592,0.03808 -4.271956,-0.02719 z m 0.943612,0.557589 c 0.176595,-0.02693 0.10654,0.04236 0,0 z m 0.389641,2.968294 c 0.478352,2.886646 0.956703,5.773292 1.435057,8.659939 -0.266482,0.451133 -0.532955,0.902271 -0.799436,1.353405 l -6.554123,0.0078 5.918502,-10.021095 z m 9.616464,0.589628 1.559597,9.410796 -5.998595,0.0072 c -0.05039,-0.513657 -0.243148,-1.053906 -0.206894,-1.551377 1.548634,-2.622217 3.097259,-5.244439 4.645892,-7.866656 z m 2.073779,12.514482 c 0.09147,0.55156 0.182934,1.10312 0.274401,1.65468 -1.467762,-6.5e-4 -3.009585,8.7e-4 -4.431274,-10e-6 -0.32497,1.31282 -0.585854,2.70628 -0.950848,3.96875 -0.136682,-1.41963 -0.46306,-2.85697 -0.669498,-4.28407 -0.01544,-0.41652 -0.278621,-1.04284 -0.143845,-1.33215 1.973682,-0.002 3.947373,-0.005 5.921064,-0.007 z m -14.598077,4.80126 c 0.159549,0.0282 -0.08785,0.0639 0,0 z" /><path
       d="m 213.167,54.6905 c -21.35345,0.469657 -84.67618,2.764066 -31.654,0 l -5.474,31.416 H 154.5 L 169.613,0.426457 h 59.738 L 226.019,18.9905 h -38.318 l -2.975,17.136 H 216.38 Z M 276.899,0.426457 c 9.044,0 15.47,1.983333 19.278,5.950003 2.856,3.01466 4.284,6.82264 4.284,11.42404 0,1.5866 -0.159,3.2526 -0.476,4.998 l -1.666,9.282 c -0.952,5.1566 -2.618,9.3216 -4.998,12.495 -2.301,3.1733 -4.879,5.4343 -7.735,6.783 l 10.829,34.748 h -24.038 l -9.996,-32.011 h -7.378 l -4.879,32.011 H 227.276 L 242.389,0.426457 Z M 269.402,18.9905 h -8.925 l -3.094,20.706 h 8.33 c 4.205,0 7.219,-0.9917 9.044,-2.975 1.825,-2.0627 2.737,-4.76 2.737,-8.092 0,-6.426 -2.697,-9.639 -8.092,-9.639 z m 79.522,67.116 0.714,-18.683 h -19.873 l -5.831,18.683 H 301.205 L 331.788,0.426457 h 39.27 l 0.476,85.680043 z m -4.879,-64.855 -9.401,30.226 h 15.589 l 1.309,-30.226 z m 117.93,-2.261 h -29.274 l -11.781,67.116 h -21.539 l 11.781,-67.116 h -29.393 l 3.332,-18.564043 h 80.206 z m 84.048,0 h -29.274 l -11.781,67.116 h -21.539 l 11.781,-67.116 h -29.393 l 3.332,-18.564043 h 80.206 z"
       fill="#ffffff"
       id="path21"
       transform="matrix(0.26458333,0,0,0.26458333,46.606427,84.61874)"
       style="filter:url(#filter0_d_0_1)" /></g></svg>
